<?xml version="1.0" encoding="UTF-8" standalone="no"?>
<!-- Generator: Adobe Illustrator 20.1.0, SVG Export Plug-In . SVG Version: 6.00 Build 0)  -->

<svg
   xmlns:dc="http://purl.org/dc/elements/1.1/"
   xmlns:cc="http://creativecommons.org/ns#"
   xmlns:rdf="http://www.w3.org/1999/02/22-rdf-syntax-ns#"
   xmlns:svg="http://www.w3.org/2000/svg"
   xmlns="http://www.w3.org/2000/svg"
   xmlns:sodipodi="http://sodipodi.sourceforge.net/DTD/sodipodi-0.dtd"
   xmlns:inkscape="http://www.inkscape.org/namespaces/inkscape"
   version="1.1"
   id="Layer_1"
   x="0px"
   y="0px"
   viewBox="0 0 600 600"
   style="enable-background:new 0 0 600 600;"
   xml:space="preserve"
   width="5cm"
   height="5cm"
   sodipodi:docname="vendor-supermicro.svg"
   inkscape:version="0.92.4 (unknown)"><metadata
   id="metadata34"><rdf:RDF><cc:Work
       rdf:about=""><dc:format>image/svg+xml</dc:format><dc:type
         rdf:resource="http://purl.org/dc/dcmitype/StillImage" /><dc:title></dc:title></cc:Work></rdf:RDF></metadata><defs
   id="defs32" /><sodipodi:namedview
   pagecolor="#ffffff"
   bordercolor="#666666"
   borderopacity="1"
   objecttolerance="10"
   gridtolerance="10"
   guidetolerance="10"
   inkscape:pageopacity="0"
   inkscape:pageshadow="2"
   inkscape:window-width="2556"
   inkscape:window-height="1397"
   id="namedview30"
   showgrid="false"
   inkscape:zoom="3.5322341"
   inkscape:cx="82.843987"
   inkscape:cy="87.372082"
   inkscape:window-x="0"
   inkscape:window-y="20"
   inkscape:window-maximized="0"
   inkscape:current-layer="Layer_1" />
<style
   type="text/css"
   id="style2">
	.st0{clip-path:url(#SVGID_2_);fill:url(#SVGID_3_);}
	.st1{fill:#E2231A;}
	.st2{fill:#FFFFFF;}
</style>



<rect
   style="color:#000000;clip-rule:nonzero;display:inline;overflow:visible;visibility:visible;opacity:1;isolation:auto;mix-blend-mode:normal;color-interpolation:sRGB;color-interpolation-filters:linearRGB;solid-color:#000000;solid-opacity:1;vector-effect:none;fill:#0a974b;fill-opacity:1;fill-rule:nonzero;stroke:none;stroke-width:12.69999981;stroke-linecap:butt;stroke-linejoin:miter;stroke-miterlimit:4;stroke-dasharray:none;stroke-dashoffset:0;stroke-opacity:1;color-rendering:auto;image-rendering:auto;shape-rendering:auto;text-rendering:auto;enable-background:accumulate"
   id="rect921"
   width="600"
   height="600"
   x="-8.8817842e-16"
   y="-4.5776364e-06" /><text
   xml:space="preserve"
   style="font-style:normal;font-variant:normal;font-weight:bold;font-stretch:normal;font-size:211.66667175px;line-height:79.375px;font-family:'DejaVu Sans Mono';-inkscape-font-specification:'DejaVu Sans Mono, Bold';font-variant-ligatures:normal;font-variant-position:normal;font-variant-caps:normal;font-variant-numeric:normal;font-variant-alternates:normal;font-feature-settings:normal;text-indent:0;text-align:start;text-decoration:none;text-decoration-line:none;text-decoration-style:solid;text-decoration-color:#000000;letter-spacing:3.17499971px;word-spacing:0px;text-transform:none;writing-mode:lr-tb;direction:ltr;text-orientation:mixed;dominant-baseline:auto;baseline-shift:baseline;text-anchor:start;white-space:normal;shape-padding:0;opacity:1;vector-effect:none;fill:#ffffff;fill-opacity:1;stroke:none;stroke-width:6.34999943;stroke-linecap:butt;stroke-linejoin:miter;stroke-miterlimit:4;stroke-dasharray:none;stroke-dashoffset:0;stroke-opacity:1"
   x="37.682148"
   y="377.15292"
   id="text925"><tspan
     sodipodi:role="line"
     x="37.682148"
     y="471.82416"
     style="font-style:normal;font-variant:normal;font-weight:bold;font-stretch:normal;font-size:203.19999695px;font-family:'DejaVu Sans Mono';-inkscape-font-specification:'DejaVu Sans Mono, Bold';font-variant-ligatures:normal;font-variant-caps:normal;font-variant-numeric:normal;font-feature-settings:normal;text-align:start;writing-mode:lr-tb;text-anchor:start;fill:#ffffff;fill-opacity:1;stroke-width:6.34999943"
     id="tspan991" /></text>
<path
   id="path1019"
   style="font-style:normal;font-variant:normal;font-weight:bold;font-stretch:normal;font-size:169.33332825px;font-family:'DejaVu Sans Mono';-inkscape-font-specification:'DejaVu Sans Mono, Bold';font-variant-ligatures:normal;font-variant-position:normal;font-variant-caps:normal;font-variant-numeric:normal;font-variant-alternates:normal;font-feature-settings:normal;text-indent:0;text-align:start;text-decoration:none;text-decoration-line:none;text-decoration-style:solid;text-decoration-color:#000000;letter-spacing:3.17499971px;word-spacing:0px;text-transform:none;writing-mode:lr-tb;direction:ltr;text-orientation:mixed;dominant-baseline:auto;baseline-shift:baseline;text-anchor:start;white-space:normal;shape-padding:0;fill:#fdfdfd;fill-opacity:1;stroke:none;stroke-width:6.34999943;stroke-linecap:butt;stroke-linejoin:miter;stroke-miterlimit:4;stroke-dasharray:none;stroke-dashoffset:0;stroke-opacity:1"
   d="m 506.48248,363.70669 q -9.34309,0 -13.64257,10.00456 -4.29948,9.92187 -4.29948,32.16341 0,22.15885 4.29948,32.16341 4.29948,9.92187 13.64257,9.92187 9.42578,0 13.72526,-9.92187 4.29948,-10.00456 4.29948,-32.16341 0,-22.24154 -4.29948,-32.16341 -4.29948,-10.00456 -13.72526,-10.00456 z m -43.32552,42.16797 q 0,-31.66732 10.91407,-47.87305 10.99674,-16.20572 32.41145,-16.20572 21.4974,0 32.41146,16.20572 10.99675,16.20573 10.99675,47.87305 0,31.58463 -10.99675,47.79036 -10.91406,16.20573 -32.41146,16.20573 -21.41471,0 -32.41145,-16.20573 -10.91407,-16.20573 -10.91407,-47.79036 z m -45.92174,3.30729 q 3.63802,0.74414 6.28385,3.47266 2.72852,2.64583 6.61459,10.41797 l 22.32422,44.40039 H 425.66881 L 410.786,436.30174 q -0.66146,-1.32291 -1.73633,-3.63802 -6.5319,-13.97331 -15.3789,-13.97331 h -7.77214 v 48.78256 H 361.50736 V 344.02831 h 35.22265 q 23.8125,0 34.14779,8.43359 10.41797,8.43359 10.41797,27.45052 0,12.73307 -6.20118,20.25716 -6.20117,7.52409 -17.85937,9.01237 z m -31.33659,-44.64843 v 33.65169 h 11.49284 q 10.00456,0 14.30404,-3.88607 4.38216,-3.96875 4.38216,-12.98112 0,-9.01237 -4.29948,-12.89844 -4.29948,-3.88606 -14.38672,-3.88606 z m -51.04804,99.38411 q -5.78776,2.97656 -12.1543,4.46484 -6.36654,1.48828 -13.39453,1.48828 -24.97005,0 -38.11654,-16.45377 -13.14648,-16.45378 -13.14648,-47.54232 0,-31.17122 13.14648,-47.625 13.14649,-16.45377 38.11654,-16.45377 7.02799,0 13.47721,1.48828 6.44922,1.48828 12.07162,4.46484 v 27.11979 q -6.28386,-5.78776 -12.23698,-8.43359 -5.87045,-2.72852 -12.1543,-2.72852 -13.39453,0 -20.25716,10.66602 -6.77995,10.58333 -6.77995,31.50195 0,20.83594 6.77995,31.50195 6.86263,10.58333 20.25716,10.58333 6.28385,0 12.1543,-2.64583 5.95312,-2.72851 12.23698,-8.51627 z M 154.6528,365.5257 v -21.49739 h 73.50456 v 21.49739 h -24.55664 v 80.44987 h 24.55664 v 21.4974 H 154.6528 v -21.4974 h 24.55664 V 365.5257 Z M 42.502545,344.02831 h 29.104166 l 14.717448,54.1569 14.634761,-54.1569 h 29.26953 v 123.44466 h -21.0013 V 368.58495 L 96.163351,422.57648 H 76.733013 L 63.503847,368.58495 v 98.88802 H 42.502545 Z M 522.2748,197.51529 q 3.63802,0.74414 6.28386,3.47266 2.72851,2.64583 6.61458,10.41797 l 22.32422,44.40038 h -26.78907 l -14.88281,-31.17122 q -0.66146,-1.32291 -1.73633,-3.63802 -6.5319,-13.97331 -15.3789,-13.97331 h -7.77214 V 255.8063 H 466.54694 V 132.36165 h 35.22265 q 23.8125,0 34.14779,8.43359 10.41797,8.43359 10.41797,27.45052 0,12.73307 -6.20117,20.25716 -6.20118,7.52409 -17.85938,9.01237 z m -31.33659,-44.64844 v 33.6517 h 11.49284 q 10.00456,0 14.30404,-3.88607 4.38216,-3.96875 4.38216,-12.98112 0,-9.01237 -4.29948,-12.89844 -4.29948,-3.88607 -14.38672,-3.88607 z M 441.29577,255.8063 H 364.40124 V 132.36165 h 76.89453 v 21.49739 h -52.50326 v 26.6237 h 47.54232 v 21.49739 h -47.54232 v 32.32878 h 52.50326 z M 283.25684,152.86685 v 36.21485 h 10.00455 q 11.98894,0 16.78451,-4.05143 4.87825,-4.05144 4.87825,-14.05599 0,-10.00456 -4.87825,-14.05599 -4.79557,-4.05144 -16.78451,-4.05144 z m -24.39128,-20.5052 h 33.48633 q 25.54883,0 36.71094,9.09505 11.24479,9.09505 11.24479,29.51758 0,20.42252 -11.24479,29.51757 -11.16211,9.09506 -36.71094,9.09506 h -9.09505 v 46.21939 h -24.39128 z m -109.66979,77.88671 v -77.88671 h 24.39128 v 84.0052 q 0,9.26042 4.71289,14.55209 4.71289,5.20898 13.0638,5.20898 8.35091,0 13.0638,-5.20898 4.71289,-5.29167 4.71289,-14.55209 v -84.0052 h 24.39128 v 77.88671 q 0,25.13542 -10.00456,36.54558 -10.00456,11.41015 -32.16341,11.41015 -22.07617,0 -32.16341,-11.41015 -10.00456,-11.41016 -10.00456,-36.54558 z m -71.635934,-8.59895 q -18.43815,-7.028 -24.970051,-14.71745 -6.531901,-7.77214 -6.531901,-20.83594 0,-16.7845 10.748697,-26.37565 10.748698,-9.59114 29.517578,-9.59114 8.516276,0 17.032551,1.98437 8.51628,1.90169 16.86719,5.70508 v 23.8125 q -7.85482,-5.53972 -15.95768,-8.4336 -8.102869,-2.89388 -16.040369,-2.89388 -8.847005,0 -13.559895,3.55534 -4.712891,3.55534 -4.712891,10.16992 0,5.12631 3.389974,8.51628 3.472656,3.30729 14.386719,7.35872 l 10.50065,3.96875 q 14.882812,5.45703 21.910812,14.4694 7.02799,9.01237 7.02799,22.73763 0,18.6862 -11.07943,27.94662 -10.99674,9.17773 -33.32096,9.17773 -9.177734,0 -18.43815,-2.23242 -9.177734,-2.14974 -17.776692,-6.44922 v -25.2181 q 9.75651,6.94532 18.851562,10.33529 9.177734,3.38997 18.107421,3.38997 9.012369,0 13.973307,-4.05143 4.960942,-4.13411 4.960942,-11.49284 0,-5.53971 -3.307296,-9.67383 -3.307292,-4.21679 -9.591146,-6.61458 z" /></svg>